<svg xmlns="http://www.w3.org/2000/svg" width="40" height="40" viewBox="0 0 40 40">
  <!-- Background (Tailwind indigo-500) -->
  <rect width="40" height="40" rx="12" fill="#6366F1"/>
  
  <!-- Sparkles Icon -->
  <g transform="translate(8,8)">
    <path d="M11.017 2.814a1 1 0 0 1 1.966 0l1.051 5.558a2 2 0 0 0 1.594 1.594l5.558 1.051a1 1 0 0 1 0 1.966l-5.558 1.051a2 2 0 0 0-1.594 1.594l-1.051 5.558a1 1 0 0 1-1.966 0l-1.051-5.558a2 2 0 0 0-1.594-1.594l-5.558-1.051a1 1 0 0 1 0-1.966l5.558-1.051a2 2 0 0 0 1.594-1.594z"
      fill="none"
      stroke="white"
      stroke-width="2"
      stroke-linecap="round"
      stroke-linejoin="round"/>
    
    <path d="M20 2v4"
      stroke="white"
      stroke-width="2"
      stroke-linecap="round"/>
    <path d="M22 4h-4"
      stroke="white"
      stroke-width="2"
      stroke-linecap="round"/>
    
    <circle cx="4" cy="20" r="2" fill="white"/>
  </g>
</svg>
